<svg width="0" height="0" class="hidden">
  <symbol aria-hidden="true" data-prefix="fas" data-icon="exclamation-triangle" xmlns="http://www.w3.org/2000/svg" viewBox="0 0 576 512" id="alert">
    <path fill="currentColor" d="M569.517 440.013C587.975 472.007 564.806 512 527.94 512H48.054c-36.937 0-59.999-40.055-41.577-71.987L246.423 23.985c18.467-32.009 64.72-31.951 83.154 0l239.94 416.028zM288 354c-25.405 0-46 20.595-46 46s20.595 46 46 46 46-20.595 46-46-20.595-46-46-46zm-43.673-165.346l7.418 136c.347 6.364 5.609 11.346 11.982 11.346h48.546c6.373 0 11.635-4.982 11.982-11.346l7.418-136c.375-6.874-5.098-12.654-11.982-12.654h-63.383c-6.884 0-12.356 5.78-11.981 12.654z"></path>
  </symbol>
  <symbol xmlns="http://www.w3.org/2000/svg" viewBox="0 0 448 392" id="bars-solid">
    <title>bars-solid</title>
    <path d="M16 72h416a16 16 0 0016-16V16a16 16 0 00-16-16H16A16 16 0 000 16v40a16 16 0 0016 16zm0 160h416a16 16 0 0016-16v-40a16 16 0 00-16-16H16a16 16 0 00-16 16v40a16 16 0 0016 16zm0 160h416a16 16 0 0016-16v-40a16 16 0 00-16-16H16a16 16 0 00-16 16v40a16 16 0 0016 16z" fill="#fff"></path>
  </symbol>
  <symbol aria-hidden="true" data-prefix="fas" data-icon="eye" xmlns="http://www.w3.org/2000/svg" viewBox="0 0 576 512" id="eye">
    <path fill="currentColor" d="M572.52 241.4C518.29 135.59 410.93 64 288 64S57.68 135.64 3.48 241.41a32.35 32.35 0 000 29.19C57.71 376.41 165.07 448 288 448s230.32-71.64 284.52-177.41a32.35 32.35 0 000-29.19zM288 400a144 144 0 11144-144 143.93 143.93 0 01-144 144zm0-240a95.31 95.31 0 00-25.31 3.79 47.85 47.85 0 01-66.9 66.9A95.78 95.78 0 10288 160z"></path>
  </symbol>
  <symbol aria-hidden="true" data-prefix="fas" data-icon="eye-slash" xmlns="http://www.w3.org/2000/svg" viewBox="0 0 640 512" id="eye-slash">
    <path fill="currentColor" d="M320 400c-75.85 0-137.25-58.71-142.9-133.11L72.2 185.82c-13.79 17.3-26.48 35.59-36.72 55.59a32.35 32.35 0 000 29.19C89.71 376.41 197.07 448 320 448c26.91 0 52.87-4 77.89-10.46L346 397.39a144.13 144.13 0 01-26 2.61zm313.82 58.1l-110.55-85.44a331.25 331.25 0 0081.25-102.07 32.35 32.35 0 000-29.19C550.29 135.59 442.93 64 320 64a308.15 308.15 0 00-147.32 37.7L45.46 3.37A16 16 0 0023 6.18L3.37 31.45A16 16 0 006.18 53.9l588.36 454.73a16 16 0 0022.46-2.81l19.64-25.27a16 16 0 00-2.82-22.45zm-183.72-142l-39.3-30.38A94.75 94.75 0 00416 256a94.76 94.76 0 00-121.31-92.21A47.65 47.65 0 01304 192a46.64 46.64 0 01-1.54 10l-73.61-56.89A142.31 142.31 0 01320 112a143.92 143.92 0 01144 144c0 21.63-5.29 41.79-13.9 60.11z"></path>
  </symbol>
</svg>